<svg width="21" height="21" viewBox="0 0 21 21" fill="none" xmlns="http://www.w3.org/2000/svg">
<path fill-rule="evenodd" clip-rule="evenodd" d="M7.9334 2.69392C5.09834 2.69392 2.80006 4.9922 2.80006 7.82726C2.80006 10.6623 5.09834 12.9606 7.9334 12.9606C10.7685 12.9606 13.0667 10.6623 13.0667 7.82726C13.0667 4.9922 10.7685 2.69392 7.9334 2.69392ZM0.233398 7.82726C0.233398 3.57467 3.68081 0.127258 7.9334 0.127258C12.186 0.127258 15.6334 3.57467 15.6334 7.82726C15.6334 9.49024 15.1062 11.0301 14.2099 12.2888L20.3909 18.4698C20.892 18.971 20.892 19.7835 20.3909 20.2847C19.8897 20.7859 19.0771 20.7859 18.5759 20.2847L12.3949 14.1037C11.1362 15.0001 9.59638 15.5273 7.9334 15.5273C3.68081 15.5273 0.233398 12.0798 0.233398 7.82726Z" fill="white"/>
</svg>
